HIERARCHY
ROOT Hips
{
  OFFSET 0.0 0.0 0.0
  CHANNELS 6 XPOSITION YPOSITION ZPOSITION ZROTATION XROTATION YROTATION 
  JOINT RightUpLeg
  {
    OFFSET -0.089458038 -0.086670642 0.001016508
    CHANNELS 3 ZROTATION XROTATION YROTATION 
    JOINT RightLeg
    {
      OFFSET 1.524e-006 -0.44256706 0.04075049
      CHANNELS 3 ZROTATION XROTATION YROTATION 
      JOINT RightFoot
      {
        OFFSET 0.001562862 -0.419119812 -0.041630854
        CHANNELS 3 ZROTATION XROTATION YROTATION 
        End Site
        {
          OFFSET 7.5692e-005 -0.04415155 0.084991702
        }
      }
    }
  }
  JOINT Spine
  {
    OFFSET 0.0 0.11890502 0.0
    CHANNELS 3 ZROTATION XROTATION YROTATION 
    JOINT Spine1
    {
      OFFSET 0.0 0.256575052 0.001270508
      CHANNELS 3 ZROTATION XROTATION YROTATION 
      End Site
      {
        OFFSET -0.002899918 0.215084406 0.0252476
      }
      JOINT RightArm
      {
        OFFSET -0.16272758 -0.05365633 0.001021842
        CHANNELS 3 ZROTATION XROTATION YROTATION 
        JOINT RightForeArm
        {
          OFFSET -0.263648698 -0.000263906 -0.014099794
          CHANNELS 3 ZROTATION XROTATION YROTATION 
          End Site
          {
            OFFSET -0.220319092 0.001914652 0.010174732
          }
        }
      }
      JOINT LeftArm
      {
        OFFSET 0.16272758 -0.05365633 0.001020826
        CHANNELS 3 ZROTATION XROTATION YROTATION 
        JOINT LeftForeArm
        {
          OFFSET 0.26260552 -0.000263144 -0.01410081
          CHANNELS 3 ZROTATION XROTATION YROTATION 
          End Site
          {
            OFFSET 0.220897958 0.001915922 0.01017524
          }
        }
      }
    }
  }
  JOINT LeftUpLeg
  {
    OFFSET 0.089458038 -0.086670642 0.001016508
    CHANNELS 3 ZROTATION XROTATION YROTATION 
    JOINT LeftLeg
    {
      OFFSET -3.048e-006 -0.442569346 0.040725598
      CHANNELS 3 ZROTATION XROTATION YROTATION 
      JOINT LeftFoot
      {
        OFFSET -0.002532888 -0.41911778 -0.041605708
        CHANNELS 3 ZROTATION XROTATION YROTATION 
        End Site
        {
          OFFSET -0.00040005 -0.044151042 0.084991194
        }
      }
    }
  }
}
MOTION
Frames: 8
Frame Time: 0.033333
1.0629519 0.986431383574 2.08315306 1.66891851732 2.27276615033 178.111512345 4.7516678367 1.28498974209 0.228857547694 -0.808312227301 4.92536808503 -2.54309692683 -3.82292432657 -31.1073315936 0.271899051966 1.15921949249 3.46078406824 0.173616618533 1.71757411693 -0.274298769562 -0.172501977017 76.2209359672 -8.71731835749 7.47654790042 11.7063517185 23.7889631904 -0.539323529613 -80.8538532813 -12.0394352849 -15.4687460549 -16.9448967836 49.264733804 7.79714161213 0.734444905366 0.88760480051 1.91362968113 -0.678384100041 7.4690355461 -0.64245127523 3.42005778466 -33.4703516502 -0.128271045994 
1.06444542 0.986019903574 2.08125822 1.56738135201 2.17658982974 177.937110295 4.75873879004 1.10798346876 0.313458618631 -0.852919285636 5.32807475784 -2.46977762086 -3.85561318506 -31.4415532403 0.259736646169 1.05212660862 3.36479408375 0.10688426295 1.58504358087 -0.227698389887 -0.215501699741 76.3506139388 -8.58965870681 7.66903287651 11.8334547088 23.7316152146 -0.785527303199 -80.6075908107 -11.9145051485 -15.2644158232 -17.0104375713 49.0148240124 7.76703157695 0.708863018799 0.817849946147 1.90049373325 -0.652841807227 7.70197231756 -0.442895612602 3.25990436277 -33.7770715402 -0.107193529113 
1.06587036 0.985565243574 2.07930496 1.57050061402 2.10942687209 177.786900774 4.87570535269 1.0218679101 0.453872206845 -0.898784379439 5.62533440891 -2.46236558495 -3.89198607682 -31.7165708072 0.250159200168 1.13287619991 3.21719945876 -0.0316498826544 1.4501249332 -0.0634988946716 -0.338400201644 76.5636407089 -8.58665000848 8.04816899338 11.9470228254 23.7371203471 -1.09821693858 -80.405512834 -11.8408449734 -15.0435548262 -17.0732223777 48.7493038235 7.7355631879 0.767278852006 0.693017780338 1.90263926643 -0.565208772628 8.12298944687 -0.300717114178 3.13147695614 -34.1704870213 -0.0849680401927 
1.0672445 0.985026763574 2.0773644 1.61511807773 2.24602980171 177.599849214 5.04147105564 1.168733946 0.609326778746 -0.973974516917 5.89684424682 -2.44967039771 -3.92540106979 -31.9647867119 0.241403271178 1.25073687702 3.59469825121 -0.0564109859224 1.38396270498 -0.303094420216 -0.347304847331 76.6104616556 -8.56574194566 8.00850437732 11.9322653479 23.6841351546 -1.0085543773 -80.286148448 -11.9549185241 -14.9037528067 -17.0822928689 48.8783978139 7.74997488705 0.877246925356 0.772329883619 1.99878164951 -0.515831627571 8.60120770293 -0.267913183018 2.94603710673 -34.5716001256 -0.061086857389 
1.0687939 0.984330803574 2.07497172 1.52614163029 2.42067539091 177.488558112 5.08934257087 1.2769990611 0.720478929422 -1.07777492945 6.38611929848 -2.48905454913 -3.98060607375 -32.3538137964 0.227402157112 0.991695762883 4.12519861716 0.0473226021436 1.65905401661 -0.718191723184 -0.274921597437 76.3743761669 -8.46912208966 7.54499834873 11.819995821 23.4359175424 -0.555638396941 -80.2888463727 -12.0977002136 -14.8938080513 -17.065688679 49.1202206615 7.77809648341 0.846715712961 0.891018987961 2.06875032082 -0.45928059609 9.10960258851 -0.266663365122 2.7174001528 -34.9790106643 -0.0369799881929 
1.07053126 0.983299563574 2.07192626 1.28861016924 2.4716599783 177.506275622 4.98071268099 1.10200214404 0.763641242664 -1.15080043057 7.2660739136 -2.56793555008 -4.09771180151 -32.9823482944 0.205164822082 0.579622712933 4.13779690109 0.0689798013155 1.95072166375 -0.687490663195 -0.298221480449 76.1691289824 -8.39674855144 7.34094644728 11.7890584792 23.2106630262 -0.372118924586 -80.2810053156 -12.0707081598 -14.8965674477 -17.0774929535 48.9562927063 7.75892926505 0.634525000781 0.75772357744 2.03137766011 -0.295888970848 9.87890557775 -0.252443098033 2.48024808741 -35.5135173631 -0.0100739762407 
1.07214416 0.981618083574 2.06877412 1.04357083619 2.5855523155 177.506166339 4.79720214658 0.791440592834 0.702066980575 -1.1239837205 8.58759342836 -2.49185407291 -4.31513465204 -33.8348925066 0.175044661678 0.434393761313 4.073800163 0.00431089198732 1.90729958987 -0.497990373046 -0.356713486274 76.1530507171 -8.44840612591 7.44932276639 11.8440551623 23.2822007201 -0.561526873779 -80.1898837619 -11.8958083595 -14.7920706761 -17.1288457308 48.574099226 7.71463378073 0.415595986819 0.482167706225 2.12657534266 -0.11999593831 11.1048075668 -0.421084310622 2.19398311991 -36.2461132082 0.021451119558 
1.0733786 0.978516743574 2.06624936 0.890759013886 2.98382448798 177.355410404 4.62755817684 0.414083099918 0.51771350477 -1.01059297533 10.6008574268 -2.17117348973 -4.64033233814 -35.0207499503 0.126626477848 0.593522948307 4.72009955613 0.0191649972128 1.6445333546 -0.769990277024 -0.287725987655 76.1052393929 -8.54635957634 7.44535101138 11.8838136935 23.5886166666 -0.725198803582 -80.0987143968 -11.7498327027 -14.6399879765 -17.1771368757 48.3178817548 7.68525030692 0.334451391808 0.106075125657 2.7788048341 -0.0226351068372 13.1539582329 -1.02756386098 1.89378776815 -37.3092014166 0.0587143604983 
